#!OML:ASF E:/inclinewalkrobotboard/Project1/Captureday1/Session1/subject1.ASF
:FULLY-SPECIFIED
:DEGREES
126
root 0 0 0 -2.336579948265273 -6.021259346955599 -5.905509285529189
lowerback 11.552844354210588 2.502797568608905 5.611178949599871
upperback 1.3936167258950736 4.021075463740613 1.3751645398053374
thorax -4.835463013263141 1.8701778290157285 -2.2722313387961606
lowerneck -17.0370422677249 -3.5188131810997607 -2.212029326495413
upperneck 20.973618853110082 -4.626118813785287 0.949088778457757
head 9.38847277586786 -2.2024042335570115 0.06922376728826476
rclavicle -1.8278373245353126E-15 2.010732216446734E-15
rhumerus -29.855911562053514 -16.99010038028298 -82.32381100702098
rradius 27.254686093120704
rwrist 10.768925040231974
rhand -20.330220280617446 28.494816527978408
rfingers 7.125019999999995
rthumb 6.043749114584666 -1.5838666939281083
lclavicle -5.8369423115047444E-15 1.281103869492511E-15
lhumerus -32.36819669390397 2.6906482988920972 84.11548773384358
lradius 22.381766244722794
lwrist 3.773775208393649
lhand -27.754378855818942 26.99328581492658
lfingers 7.125020000000049
lthumb -1.158010338351235 56.984557164215104
rfemur 1.1367251181703315 5.312500422020378 26.768648828166796
rtibia 32.43211452509072
rfoot -8.828819086109373 -3.187128997632425
rtoes 0.7194085940753274
lfemur -23.0751002051988 -4.0121823616562775 -15.52877131449345
ltibia 22.18395904898309
lfoot -8.091674100197174 3.3753805448487615
ltoes 1.2437546492487677
127
root 0 0 0 -2.749503168543839 -5.938970663827145 -5.17652888784257
lowerback 11.160432047656021 2.427861240478571 4.945317929120806
upperback 1.2373011026177185 3.828504955350298 1.200084358490671
thorax -4.795299971474942 1.7881342208324313 -2.0409256449582682
lowerneck -17.070838037414877 -3.468133313483965 -2.2438344520660523
upperneck 20.412011397570893 -4.575293886109922 1.0734542240127332
head 9.172905306390632 -2.170664925624086 0.12395803282240955
rclavicle -1.6664931297267155E-15 1.8489215390820745E-15
rhumerus -30.344788364710823 -18.4247647356309 -82.04501134559152
rradius 26.318349075593332
rwrist 11.428115329919674
rhand -20.21613603525789 27.901501377633338
rfingers 7.125019999999996
rthumb 6.154422041099221 -2.175998003942645
lclavicle -5.4695262110196E-15 1.1130823280350614E-15
lhumerus -33.701195864621056 4.060004413875206 83.31428044133494
lradius 21.378536729908095
lwrist 3.005675151943076
lhand -27.5136425275307 27.11070731696625
lfingers 7.125020000000052
lthumb -0.9267654502718079 57.06640226101344
rfemur -0.5293962538020871 3.2472776684377753 23.98099354203883
rtibia 45.42290148396657
rfoot -0.10269576077160458 -1.3172123275508518
rtoes 6.136735664302759
lfemur -21.27634099425268 -3.9871917209940166 -16.34293334954197
ltibia 22.713813730698995
lfoot -7.625066982434608 2.4316927694094104
ltoes 2.0980381307725118
128
root 0 0 0 -4.248247830897876 -5.553810197287667 -2.920791472307209
lowerback 10.957066607708667 1.89186493804575 2.5586083481167217
upperback 0.9619615285900853 2.8324539388445196 0.864603603735977
thorax -5.036817981871073 1.3427327604444816 -0.8869028318653361
lowerneck -17.30862481185013 -3.3288649138732143 -2.068803264116946
upperneck 17.482844321078865 -4.335894011367845 1.0233650264669456
head 8.25600948140199 -2.074392441645713 0.13148858468729804
rclavicle -2.3753299967601126E-15 1.7130110581812465E-15
rhumerus -31.02636998957822 -20.063641223049686 -81.69490359265484
rradius 25.101282861883192
rwrist 11.855948377553318
rhand -20.050405222676112 27.240062292368002
rfingers 7.1250199999999975
rthumb 6.31564144006404 -2.827860025600401
lclavicle -6.123371726993647E-15 9.16606796613744E-16
lhumerus -34.487718744898686 4.85212077754803 82.84084738274323
lradius 20.795839782656454
lwrist 2.5829000725495264
lhand -27.393649130623636 27.20866376744342
lfingers 7.125020000000053
lthumb -0.8116520688139737 57.14589978519796
rfemur -9.941677414918127 1.9472380343021785 23.641705221355103
rtibia 59.05276430917318
rfoot 4.240019303022633 -2.4575848314638513
rtoes 10.47213457509553
lfemur -16.364675899196623 -4.11920678023003 -18.618592319780255
ltibia 22.96505648315924
lfoot -7.774803426854334 0.9929935559468066
ltoes 3.208910936188296
129
root 0 0 0 -5.930350733908723 -4.225995275913359 1.463160508354584
lowerback 11.157607003553148 0.9007843361331157 -1.8108451083312664
upperback 1.112742556746966 0.9994943053917069 0.4034288144914737
thorax -5.03053604717548 0.5353234865322039 1.3789045375027384
lowerneck -17.431011716283248 -3.1056975255766495 -2.2778837656128084
upperneck 17.861729964686052 -4.005190819483049 1.152482979675007
head 8.426334719210486 -1.9029766452567474 0.2410421262307539
rclavicle -2.8148581961640874E-15 2.763711697041891E-15
rhumerus -31.65727612953615 -22.302413836535067 -81.0019655418084
rradius 23.803824380629344
rwrist 12.032727900466512
rhand -19.83375451225635 26.23038342584009
rfingers 7.125020000000001
rthumb 6.525316730309118 -3.8297006497128336
lclavicle -6.542111617882196E-15 2.424208483052124E-15
lhumerus -33.059126983149405 3.566323636220897 82.64811115670521
lradius 22.118374957012968
lwrist 3.390805716989509
lhand -27.767363369376476 27.124408043041818
lfingers 7.125020000000048
lthumb -1.1729815600246045 57.111065337847876
rfemur -20.945425857589903 -0.26986710810193815 17.60332320975375
rtibia 61.581166944904126
rfoot 5.937477235595473 -4.386432315293375
rtoes 10.020022189754672
lfemur 0.03322813221533494 -4.779416808718176 -25.558639498068892
ltibia 19.920568306884594
lfoot -14.49567535298485 0.7462149241348435
ltoes -0.3628891550702882
